<?xml version="1.0" encoding="utf-8"?>
<!-- Generator: Adobe Illustrator 16.0.0, SVG Export Plug-In . SVG Version: 6.00 Build 0)  -->
<!DOCTYPE svg PUBLIC "-//W3C//DTD SVG 1.1//EN" "http://www.w3.org/Graphics/SVG/1.1/DTD/svg11.dtd">
<svg version="1.1" id="Layer_1" xmlns:sketch="http://www.bohemiancoding.com/sketch/ns"
	 xmlns="http://www.w3.org/2000/svg" xmlns:xlink="http://www.w3.org/1999/xlink" x="0px" y="0px" width="75px" height="72px"
	 viewBox="0 0 75 72" enable-background="new 0 0 75 72" xml:space="preserve">
<title>icon-sun</title>
<desc>Created with Sketch Beta.</desc>
<g id="Welcome" sketch:type="MSPage">
	<g id="Challenge---Grid" transform="translate(-349.000000, -856.000000)" sketch:type="MSArtboardGroup">
		<g id="Group" transform="translate(320.000000, 808.000000)" sketch:type="MSLayerGroup">
			<g id="icon-sun" transform="translate(32.000000, 50.000000)" sketch:type="MSShapeGroup">
				<g id="Line-2">
					<path fill="#272B2C" d="M49.941,69.48c-0.741,0-1.453-0.413-1.8-1.123l-6.356-13.032c-0.484-0.993-0.071-2.19,0.921-2.675
						c0.993-0.485,2.19-0.07,2.675,0.921l6.356,13.032c0.484,0.993,0.071,2.19-0.921,2.675C50.534,69.416,50.235,69.48,49.941,69.48
						z M19.059,69.48c-0.294,0-0.593-0.064-0.875-0.202c-0.993-0.484-1.405-1.682-0.92-2.675l6.356-13.032
						c0.484-0.992,1.681-1.405,2.674-0.921c0.993,0.484,1.405,1.682,0.92,2.675l-6.356,13.032
						C20.512,69.067,19.8,69.48,19.059,69.48z M69.114,45.426c-0.149,0-0.301-0.017-0.452-0.051l-14.128-3.262
						c-1.076-0.249-1.747-1.323-1.499-2.399c0.249-1.077,1.325-1.74,2.399-1.499l14.128,3.262c1.076,0.249,1.747,1.323,1.499,2.399
						C70.848,44.801,70.024,45.426,69.114,45.426z M-0.114,45.426c-0.91,0-1.733-0.625-1.947-1.55
						c-0.249-1.076,0.422-2.15,1.499-2.399l14.128-3.262c1.075-0.242,2.15,0.423,2.398,1.499c0.249,1.076-0.422,2.15-1.499,2.399
						L0.337,45.375C0.186,45.409,0.035,45.426-0.114,45.426z M18.042,24.45c-0.442,0-0.887-0.146-1.258-0.446L5.516,14.879
						c-0.858-0.695-0.991-1.955-0.295-2.813c0.694-0.858,1.954-0.991,2.813-0.295l11.269,9.125c0.858,0.695,0.991,1.955,0.295,2.813
						C19.203,24.197,18.625,24.45,18.042,24.45z M50.958,24.45c-0.582,0-1.16-0.253-1.556-0.741
						c-0.694-0.858-0.562-2.118,0.296-2.813l11.268-9.125c0.856-0.695,2.117-0.564,2.813,0.295c0.694,0.858,0.562,2.118-0.296,2.813
						l-11.268,9.125C51.846,24.304,51.4,24.45,50.958,24.45z M34.5,16.5c-1.104,0-2-0.896-2-2V0c0-1.104,0.896-2,2-2s2,0.896,2,2
						v14.5C36.5,15.604,35.604,16.5,34.5,16.5z"/>
				</g>
				<g id="Oval-116">
					<path fill="#272B2C" d="M34.5,49C27.056,49,21,42.944,21,35.5C21,28.056,27.056,22,34.5,22c4.998,0,9.564,2.741,11.917,7.154
						C47.452,31.093,48,33.288,48,35.5C48,42.944,41.944,49,34.5,49z M34.5,26c-5.238,0-9.5,4.262-9.5,9.5s4.262,9.5,9.5,9.5
						s9.5-4.262,9.5-9.5c0-1.558-0.385-3.101-1.112-4.463C41.231,27.93,38.018,26,34.5,26z"/>
				</g>
			</g>
		</g>
	</g>
</g>
</svg>
