<?xml version="1.0" encoding="UTF-8" standalone="no"?>
<svg width="77px" height="84px" viewBox="0 0 77 84" version="1.1" xmlns="http://www.w3.org/2000/svg" xmlns:xlink="http://www.w3.org/1999/xlink" xmlns:sketch="http://www.bohemiancoding.com/sketch/ns">
    <!-- Generator: Sketch Beta 3.0.4 (8019) - http://www.bohemiancoding.com/sketch -->
    <title>icon-toilet</title>
    <desc>Created with Sketch Beta.</desc>
    <defs></defs>
    <g id="Welcome" stroke="none" stroke-width="1" fill="none" fill-rule="evenodd" sketch:type="MSPage">
        <g id="Challenge---Grid" sketch:type="MSArtboardGroup" transform="translate(-353.000000, -211.000000)" fill="#000000">
            <g id="Group" sketch:type="MSLayerGroup" transform="translate(320.000000, 166.000000)">
                <path d="M67.9253511,118.45015 C49.2827109,114.595204 38.5789485,103.583156 36.1660277,84.679635 C35.9299452,84.6685692 35.5228363,84.641156 35.114965,84.6321021 C33.4697571,84.596138 32.8499452,83.8864135 33.0301201,82.2360901 C33.4618792,78.2795392 36.5068099,75.5834913 40.5862851,75.5819823 C56.5522224,75.5761979 72.5181597,75.5794674 88.484097,75.5794674 L90.1364204,75.5794674 C90.1364204,74.9703416 90.1361663,74.4819344 90.1364204,73.9932758 C90.1364204,66.4911201 90.1221894,58.9887129 90.1542092,51.4865572 C90.1582752,50.5384135 90.2756812,49.5512877 90.5628429,48.6514314 C91.3046349,46.3253356 93.1472983,45.037168 95.6135854,45.0162937 C98.3662719,44.9929045 101.119213,44.9969285 103.871899,45.0142817 C107.114793,45.034653 109.548298,47.2825332 109.564308,50.5067249 C109.617675,61.2358386 109.616404,71.9657069 109.521869,82.6943177 C109.515008,83.4817548 108.723915,84.38815 108.079962,85.0234314 C104.225642,88.8260662 101.690232,93.2994434 100.681863,98.6138267 C99.5339782,104.665348 100.368018,110.557671 102.347401,116.284761 C103.463011,119.512473 104.974549,122.611671 106.402988,125.725958 C107.263711,127.602629 106.634242,128.770581 104.520935,128.773096 C92.4934336,128.787431 80.4661861,128.784162 68.4386845,128.775863 C66.6717505,128.774857 65.9551168,128.158437 66.1751894,126.405252 C66.4648924,124.09827 67.0381993,121.82524 67.5134138,119.542653 C67.594734,119.151827 67.7960013,118.785647 67.9253511,118.45015 L67.9253511,118.45015 Z M102.184506,125.317276 C102.073708,125.035348 102.009668,124.843958 101.925552,124.661875 C99.3660013,119.10706 97.5629815,113.343503 97.0308429,107.232126 C96.2229782,97.956162 98.6259881,89.7548446 105.279754,82.9495871 C105.68915,82.5308446 105.996642,81.8158386 105.999945,81.2363895 C106.046958,73.3987368 106.031457,65.5608326 106.031457,57.7229285 L106.031457,56.461671 L93.5350937,56.461671 C93.505361,56.8180422 93.466734,57.0650123 93.466734,57.3119823 C93.4626679,64.5633955 93.4110805,71.8150602 93.4888429,79.0654674 C93.517559,81.7346051 93.3465326,84.3028925 92.1750145,86.7617787 C91.7109815,87.7355752 91.4555854,88.8132398 91.1597835,89.8587129 C89.4375755,95.9464494 88.3079881,102.087755 89.4543478,108.438306 C89.6586646,109.571048 89.0396151,110.465372 88.0625029,110.627587 C86.9585821,110.810928 86.1695227,110.121827 85.949196,108.840198 C84.9362521,102.946617 85.6643214,97.1641979 87.1214765,91.4408805 C87.6963082,89.1836949 88.4241234,86.9647368 89.0833247,84.7233955 L39.8073907,84.7233955 C39.9751135,86.1554195 40.0477934,87.4974075 40.2991234,88.8054434 C43.0828132,103.298713 55.451097,114.093216 70.312097,115.032557 C72.6846118,115.182701 73.3196713,116.354677 72.0803016,118.332198 C70.7469056,120.459863 69.9215062,122.748234 69.6973676,125.317276 L102.184506,125.317276 L102.184506,125.317276 Z M36.8816448,81.115168 L90.0210475,81.115168 L90.0210475,78.9844853 L88.7806613,78.9844853 C72.8276845,78.9844853 56.8749617,78.9834793 40.9222389,78.9890123 C40.4165293,78.9892638 39.8983676,78.9990722 39.4081597,79.1049524 C38.2953445,79.3453835 37.4170871,79.9167847 36.8816448,81.115168 L36.8816448,81.115168 Z M106.282787,52.8878985 C106.282787,52.1869764 106.310232,51.5665332 106.27745,50.9493596 C106.18317,49.1730362 105.363869,48.4177907 103.559325,48.4157787 C101.151232,48.4132638 98.7431399,48.4140183 96.3350475,48.4155273 C94.3330475,48.4167847 93.6136184,49.1204734 93.5785491,51.1168566 C93.5683841,51.6890123 93.5770244,52.261168 93.5770244,52.8878985 L106.282787,52.8878985 L106.282787,52.8878985 Z" id="icon-toilet" sketch:type="MSShapeGroup" transform="translate(71.500000, 87.000000) scale(-1, 1) translate(-71.500000, -87.000000) "></path>
            </g>
        </g>
    </g>
</svg>