<?xml version="1.0" encoding="UTF-8" standalone="no"?>
<svg width="105px" height="86px" viewBox="0 0 105 86" version="1.1" xmlns="http://www.w3.org/2000/svg" xmlns:xlink="http://www.w3.org/1999/xlink" xmlns:sketch="http://www.bohemiancoding.com/sketch/ns">
    <!-- Generator: Sketch Beta 3.0.4 (8019) - http://www.bohemiancoding.com/sketch -->
    <title>icon-garden</title>
    <desc>Created with Sketch Beta.</desc>
    <defs></defs>
    <g id="Welcome" stroke="none" stroke-width="1" fill="none" fill-rule="evenodd" sketch:type="MSPage">
        <g id="Challenge---Grid" sketch:type="MSArtboardGroup" transform="translate(-351.000000, -534.000000)">
            <g id="Group" sketch:type="MSLayerGroup" transform="translate(320.000000, 487.000000)" stroke="#979797">
                <rect id="Rectangle-308" sketch:type="MSShapeGroup" x="0" y="0" width="320" height="320"></rect>
            </g>
            <g id="Water-Can-2" sketch:type="MSLayerGroup" transform="translate(351.000000, 534.000000)" stroke="#272B2C" stroke-width="0.5" fill="#000000">
                <path d="M17.3114038,84.796 L17.3114038,75.8778182 C15.6900372,75.4370909 14.103422,75.1043636 12.5841374,74.5752727 C5.74898594,72.1970909 1.47783074,66.4218182 0.939185179,59.1781818 C0.635111074,55.0905455 0.860994695,51.0945455 2.51602661,47.3178182 C5.01269221,41.6232727 9.64982232,38.6472727 15.5271404,37.3589091 C16.0788177,37.2378182 16.6380968,37.1494545 17.3135757,37.024 C17.3135757,33.4916364 17.3190056,29.9472727 17.3124898,26.404 C17.302716,21.7 18.4918629,17.296 20.70726,13.1810909 C24.3941585,6.33127273 30.2910242,2.61454545 37.8049125,1.37090909 C43.2836763,0.464363636 48.7418065,0.667272727 54.0402978,2.45527273 C62.2470407,5.22509091 67.0687872,11.1727273 69.2070797,19.3992727 C69.8021962,21.688 70.072605,24.1229091 70.0888947,26.4934545 C70.173601,39.1087273 70.1290759,51.7250909 70.1323338,64.3414545 C70.1323338,64.5018182 70.1692571,64.6610909 70.2279,65.1498182 C74.1645736,61.0098182 77.9437804,57.0367273 81.7653403,53.0178182 C80.0234301,50.3658182 78.8679485,47.5850909 79.5369115,44.3712727 C79.9886787,42.196 81.3135731,40.5694545 82.9544872,39.1829091 C89.5398636,45.8330909 96.1165521,52.4756364 102.707358,59.1312727 C99.6546715,63.0061818 94.8600744,64.0741818 88.7014878,60.0890909 C88.2996756,60.6454545 87.9011213,61.3730909 87.3429282,61.9447273 C81.8793681,67.54 76.3777987,73.096 70.9337863,78.7087273 C70.4874489,79.1690909 70.2181261,79.9534545 70.1616552,80.6123636 C70.0454555,81.9803636 70.1269039,83.3647273 70.1269039,84.796 L17.3114038,84.796 L17.3114038,84.796 Z M67.0687872,27.0683636 L20.3684345,27.0683636 C20.3271673,27.3378182 20.2826422,27.4927273 20.2826422,27.6465455 C20.2782983,36.3825455 20.2706964,45.1185455 20.2967599,53.8545455 C20.2978459,54.2494545 20.5020099,54.7523636 20.7854504,55.0174545 C22.2243725,56.3614545 23.9119838,57.148 25.9199589,57.2341818 C28.9802476,57.3650909 31.487773,56.0243636 33.8801846,54.3389091 C34.4959347,53.9058182 35.096481,53.4509091 35.6709639,53.0298182 C35.8034533,53.1301818 35.8447205,53.1487273 35.8664401,53.1803636 C36.0977536,53.5152727 36.3138634,53.86 36.5549507,54.1872727 C38.3174946,56.5643636 40.4699048,58.2574545 43.6203298,57.9127273 C45.8541885,57.6672727 47.6178183,56.4138182 49.2152933,54.9170909 C49.9722206,54.2090909 50.6965686,53.4672727 51.449152,52.7276364 C52.0529563,53.6309091 52.5220992,54.4458182 53.09984,55.1756364 C55.3934275,58.0741818 58.9033115,59.0309091 62.2611584,57.5461818 C63.6566413,56.9298182 64.910947,55.9894545 66.2238956,55.1887273 C66.9167501,54.7665455 67.0894208,54.1458182 67.0861629,53.3352727 C67.0568414,45.0072727 67.0687872,36.6803636 67.0687872,28.3523636 L67.0687872,27.0683636 L67.0687872,27.0683636 Z M20.4390232,23.8578182 L67.0850769,23.8578182 C66.9004605,22.8018182 66.7777448,21.8734545 66.5735808,20.9658182 C64.9847936,13.9250909 61.1882112,8.60036364 54.4127885,5.82945455 C49.0904057,3.65309091 43.5139038,3.51781818 37.9004787,4.46690909 C32.7996355,5.32872727 28.4502899,7.57818182 25.1836652,11.6963636 C22.3774956,15.2330909 20.9548632,19.3218182 20.4390232,23.8578182 L20.4390232,23.8578182 Z M67.0025425,72.7349091 L67.0025425,58.4352727 C61.3489361,62.2163636 55.9722543,62.608 51.0147604,57.496 C45.4621501,62.1563636 40.100672,62.2981818 34.9781093,57.3018182 C30.3833324,60.304 25.5876493,61.6469091 20.3575747,58.6207273 L20.3575747,72.7349091 L67.0025425,72.7349091 L67.0025425,72.7349091 Z M17.2679646,40.204 C11.4949005,40.6283636 6.70573339,44.3418182 4.84870939,49.732 C3.82897516,52.6894545 3.67476615,55.7341818 3.9506048,58.7898182 C4.35241701,63.2287273 6.0139648,67.0807273 9.73561465,69.7741818 C11.9651294,71.3898182 14.4672249,72.3258182 17.2679646,72.6389091 L17.2679646,40.204 L17.2679646,40.204 Z M67.0036285,76.0610909 L20.3532308,76.0610909 L20.3532308,81.6607273 L67.0036285,81.6607273 L67.0036285,76.0610909 L67.0036285,76.0610909 Z M98.0626264,59.1105455 C93.0291139,53.9647273 88.0346968,48.8570909 82.9707769,43.6796364 C81.3515823,47.6123636 83.5278841,50.4116364 85.8345034,53.1236364 C80.7673256,58.4701818 75.7772524,63.7261818 70.8045548,68.9974545 C70.5156844,69.304 70.1855468,69.7261818 70.1670851,70.108 C70.0943245,71.6298182 70.1366777,73.1581818 70.1366777,74.6832727 C70.2420177,74.7083636 70.3473576,74.7323636 70.4526976,74.7574545 C76.6449496,68.6123636 82.8361155,62.4672727 89.0392273,56.3112727 C91.7107355,58.5181818 94.4615202,60.7054545 98.0626264,59.1105455 Z M24.0390434,76.7505455 C25.3031229,76.7472727 26.3402328,77.7345455 26.3239431,78.9258182 C26.3087394,80.128 25.2542538,81.1076364 24.0021201,81.0847273 C22.8118872,81.0618182 21.8062707,80.0952727 21.7747773,78.9443636 C21.7421979,77.7454545 22.7651901,76.7538182 24.0390434,76.7505455 Z M30.4072239,76.7603636 C31.6224344,76.7789091 32.6313088,77.7236364 32.6465125,78.856 C32.6628022,80.0309091 31.5920269,81.0792727 30.3692147,81.0858182 C29.1529182,81.0912727 28.0549935,80.0374545 28.0734552,78.88 C28.0919168,77.6854545 29.1322846,76.7396364 30.4072239,76.7603636 Z M63.159263,76.7538182 C64.4678676,76.7592727 65.4072394,77.6821818 65.3876918,78.9421818 C65.3681442,80.14 64.4331163,81.0596364 63.208132,81.0869091 C61.920161,81.1141818 60.9460379,80.1901818 60.9362641,78.9301818 C60.9264903,77.6265455 61.8245949,76.7472727 63.159263,76.7538182 Z M93.8989831,38.8938182 C93.8989831,38.0810909 93.8761775,37.2672727 93.904413,36.4556364 C93.9413363,35.3778182 94.676544,34.6567273 95.655011,34.6916364 C96.7496778,34.7309091 97.4034371,35.4814545 97.3176448,36.6443636 C97.2948392,36.9607273 97.2285945,37.2967273 97.0885032,37.5770909 C96.3826169,38.9887273 95.658269,40.3927273 94.9056856,41.7792727 C94.778626,42.0138182 94.4788958,42.1523636 94.2595281,42.3356364 C94.1270387,42.0825455 93.8935532,41.8338182 93.8794355,41.5741818 C93.8316524,40.6829091 93.8609738,39.7872727 93.8609738,38.8938182 L93.8989831,38.8938182 Z M100.700469,42.2341818 C100.013045,43.0665455 99.6329519,43.7505455 99.061727,44.1716364 C97.8552044,45.0607273 96.5596315,45.8330909 95.2727464,46.6054545 C95.0273152,46.7516364 94.6526525,46.6796364 94.3377186,46.708 C94.3800717,46.4221818 94.3442344,46.0927273 94.4767239,45.8603636 C95.3205295,44.3734545 96.120896,42.8505455 97.1167387,41.4694545 C97.4501342,41.0069091 98.3688724,40.6381818 98.9162058,40.7483636 C99.5091503,40.8683636 99.9793792,41.5970909 100.700469,42.2341818 Z M96.9679596,47.5425455 C98.7435352,46.4701818 100.359472,45.4621818 102.006902,44.512 C103.038582,43.9163636 103.920397,44.2130909 104.448183,45.2374545 C104.953163,46.2181818 104.648003,47.3396364 103.495779,47.56 C101.524727,47.9385455 99.4917747,47.9952727 97.4805416,48.1469091 C97.3513101,48.1567273 97.1971011,47.8218182 96.9679596,47.5425455 Z" id="icon-garden" sketch:type="MSShapeGroup"></path>
            </g>
        </g>
    </g>
</svg>