<?xml version="1.0" encoding="UTF-8" standalone="no"?>
<svg width="135px" height="82px" viewBox="0 0 135 82" version="1.1" xmlns="http://www.w3.org/2000/svg" xmlns:xlink="http://www.w3.org/1999/xlink" xmlns:sketch="http://www.bohemiancoding.com/sketch/ns">
    <!-- Generator: Sketch Beta 3.0.4 (8019) - http://www.bohemiancoding.com/sketch -->
    <title>icon-bicycle</title>
    <desc>Created with Sketch Beta.</desc>
    <defs></defs>
    <g id="Welcome" stroke="none" stroke-width="1" fill="none" fill-rule="evenodd" sketch:type="MSPage">
        <g id="Challenge---Grid" sketch:type="MSArtboardGroup" transform="translate(-31.000000, -863.000000)" fill="#272B2C">
            <g id="Group" sketch:type="MSLayerGroup" transform="translate(-2.000000, 808.000000)">
                <path d="M116.639227,116.461593 C114.503174,116.805269 112.440158,117.135681 110.37834,117.470012 C109.666223,117.585777 108.9562,117.805247 108.244382,117.810372 C107.213772,117.817608 106.4813,118.386181 105.721588,118.931542 C105.606345,119.014446 105.533606,119.270093 105.560846,119.424446 C105.883828,121.249549 106.234648,123.069527 106.565114,124.893424 C106.63905,125.301314 106.807575,125.505711 107.257176,125.467725 C107.722342,125.428233 108.193196,125.458681 108.705657,125.458681 L108.705657,127.911144 L102.505535,127.911144 L102.505535,125.496365 C103.024282,125.471946 103.513994,125.449034 104.102486,125.4216 C103.831588,123.958865 103.569371,122.544968 103.308052,121.130769 C103.276023,120.958931 103.243695,120.786792 103.217952,120.613747 C103.092231,119.773549 102.914127,119.072931 102.00834,118.592387 C100.940912,118.026225 100.513163,116.90988 100.444615,115.678372 C100.428152,115.38685 100.314404,115.040461 100.125225,114.827622 C93.1130075,106.931806 86.0864222,99.0486518 79.0622315,91.1636886 C76.7986616,88.622593 74.5365885,86.0802915 72.2730186,83.5394974 C72.1275419,83.3764018 71.9748811,83.2193357 71.7336173,82.9609754 C71.3920763,84.4478283 71.0589166,85.8174092 70.7859233,87.1987474 C70.7553911,87.3534018 71.0274865,87.6464312 71.2247481,87.757071 C75.182553,89.9752915 78.3992049,92.9860783 80.7986727,96.8572621 C83.2487281,100.810446 84.57089,105.114542 84.695114,109.787939 C84.898063,117.425696 82.2929521,123.95163 76.9091162,129.289468 C72.552298,133.60924 67.2615552,136.007439 61.147941,136.574203 C48.6100031,137.736674 36.9604909,129.497181 33.8890164,117.212556 C31.6972869,108.446394 33.5672315,100.492093 39.3973756,93.5914312 C43.5332847,88.6961518 48.8707237,85.8451445 55.1630408,84.8924974 C59.0786395,84.2998062 62.9604133,84.6163504 66.7464,85.855696 C66.9807791,85.9322695 67.219349,85.9973871 67.5749587,86.1035048 C69.103961,79.3568945 70.6254798,72.643446 72.1652581,65.8492033 C69.6460563,65.8492033 67.229227,65.8199607 64.8135951,65.862468 C63.7255131,65.8817621 62.6137836,65.9278871 61.5589277,66.1675562 C59.4516106,66.6462915 58.0908346,67.9555783 57.7495929,70.1810342 C57.3544709,72.7583062 58.0773645,74.6186812 60.1768989,75.7561298 C61.3607681,76.3973577 62.7221428,76.7087768 64.0095818,77.1510342 C64.2852692,77.2459974 64.5869987,77.2640857 64.9447038,77.3298062 C64.8755574,78.4310783 64.8085064,79.4982842 64.7369654,80.6354312 C62.7523756,80.4991665 60.9258346,79.9863651 59.2013667,79.1229533 C53.8938612,76.4657915 52.5761893,69.834946 56.4666439,65.3189165 C57.8606461,63.700321 59.7497481,62.9752842 61.7879188,62.7121004 C63.3130297,62.5149386 64.8647814,62.4841886 66.405757,62.4624827 C69.0743268,62.4251004 71.7437947,62.4709239 74.4123645,62.4374607 C75.0041494,62.4302254 75.117298,62.6683871 75.2519987,63.1908357 C75.9545375,65.9155268 74.923329,68.4334092 74.4165552,71.0146004 C74.316278,71.5243871 74.2007348,72.0311592 74.0768102,72.6114901 L74.9622426,72.6114901 C88.2574975,72.6114901 101.552753,72.6060636 114.848008,72.6277695 C115.516123,72.6289754 115.78283,72.4272915 115.971411,71.7863651 C117.121755,67.8762915 118.320291,63.9800857 119.540979,59.953343 C118.603462,59.9069165 117.724615,59.836071 116.84487,59.8261224 C115.373639,59.8095415 113.90181,59.8436077 112.43058,59.8297401 C112.090835,59.8264239 111.724449,59.7781886 111.418229,59.6419239 C110.366666,59.1737401 110.198141,57.7987327 111.198817,57.2464386 C112.001333,56.8032768 112.949027,56.5174827 113.861699,56.4053357 C117.989526,55.8970562 122.126333,55.4626371 126.263141,55.0360562 C126.923174,54.9679239 127.615236,54.9971665 128.268085,55.1168504 C130.31344,55.4912768 131.207553,56.9491886 130.70048,58.9771812 C130.202686,60.9674901 129.081677,61.6889092 127.041411,61.2764974 C125.969493,61.0597401 124.912841,60.7679165 123.847509,60.5164901 C123.564039,60.4495636 123.27518,60.4055489 122.943817,60.3425415 C122.262231,62.5791518 121.598606,64.7515489 120.937974,66.9248504 C120.275846,69.1035783 119.605635,71.279593 118.971045,73.4661592 C118.893817,73.7323577 118.912675,74.1275857 119.059648,74.344343 C122.181112,78.941468 125.327121,83.5214092 128.469837,88.1040636 C128.510247,88.1631518 128.56742,88.2107842 128.615314,88.2617327 C143.132154,79.8256812 159.814083,86.8933577 165.6116,100.264483 C171.320214,113.430306 165.12997,129.162247 151.896976,134.647505 C144.533041,137.700196 137.193651,137.455402 130.097919,133.795247 C123.023141,130.145946 118.64956,124.254306 116.639227,116.461593 L116.639227,116.461593 Z M66.814349,89.530321 C57.2335397,85.6175342 44.1436284,89.2327695 38.5837836,100.948519 C33.067941,112.572019 38.2883401,126.351034 50.0566882,131.486887 C61.6774643,136.557924 75.1891383,130.84385 79.8554687,118.776284 C84.3263335,107.213681 78.4318324,95.4707989 69.9100696,91.0301371 C69.787043,91.5715783 69.6595264,92.0991518 69.5481738,92.6300415 C69.1374865,94.5911077 68.6190386,96.4804239 67.56089,98.2425195 C65.5535508,101.58613 63.7096483,105.028924 61.8795153,108.285108 C62.1135951,109.053255 62.4138279,109.681218 62.4841716,110.334505 C62.6880186,112.230453 61.3215552,113.986519 59.5321317,114.246689 C57.5406572,114.5361 55.7314776,113.343784 55.3444377,111.486725 C54.9250696,109.474108 56.0568545,107.59263 58.048329,107.134696 C58.6314332,107.000542 58.9205907,106.703894 59.1878967,106.22335 C61.1353689,102.725387 63.0966106,99.2346592 65.0659344,95.7490562 C66.1644931,93.8048724 66.1719765,91.5773062 66.814349,89.530321 L66.814349,89.530321 Z M120.037575,115.918946 C122.063772,124.882872 130.127553,132.868828 141.084704,133.285762 C150.651145,133.649637 159.665613,127.818292 163.04211,118.297247 C166.539537,108.434637 163.029238,97.7876004 154.459881,91.8950562 C146.485003,86.4107033 136.590192,87.2569312 130.610081,91.1661004 C130.665757,91.2731224 130.711855,91.3891886 130.780702,91.4895783 C134.232032,96.525946 137.68007,101.564725 141.155047,106.584512 C141.312498,106.811821 141.707919,106.968284 142.003362,106.986674 C143.601511,107.086762 145.008384,108.184115 145.400812,109.701718 C145.815391,111.303431 145.099981,113.017593 143.677841,113.831564 C142.27426,114.634983 140.49232,114.429983 139.349161,113.250931 C139.010014,112.900924 138.717863,112.873189 138.299094,112.941622 C134.076976,113.6341 129.852165,114.310299 125.62885,114.995843 C123.765192,115.297917 121.903329,115.610542 120.037575,115.918946 L120.037575,115.918946 Z M73.3078191,75.968968 C73.1258235,76.7630415 72.9028191,77.5124974 72.8022426,78.2779312 C72.7576417,78.6182915 72.8507348,79.0891886 73.0671539,79.3351886 C76.9139055,83.7143504 80.7896927,88.0675857 84.6588944,92.4268504 C89.6071982,98.0022474 94.5549033,103.578247 99.5044044,109.15274 C100.105469,109.829542 100.716411,110.497902 101.450979,111.311872 C101.057653,109.243181 100.703839,107.382505 100.335657,105.446762 L98.3184399,105.446762 L98.3184399,102.994299 L104.499105,102.994299 L104.499105,105.49138 L102.913229,105.49138 C103.270934,107.357483 103.614271,109.149122 103.957608,110.940762 C104.005502,110.937144 104.053396,110.933527 104.10099,110.929909 C107.623562,99.2970636 111.145835,87.6639165 114.687265,75.968968 L73.3078191,75.968968 L73.3078191,75.968968 Z M117.573451,78.1817621 C117.45701,78.4895636 117.379482,78.6635121 117.324704,78.844696 C114.932121,86.7384018 112.540435,94.6327107 110.151444,102.527622 C109.123229,105.925196 108.099205,109.323674 107.076677,112.723056 C106.766566,113.75499 107.418218,114.534292 108.44793,114.369086 C109.356112,114.223475 110.263396,114.072439 111.170979,113.922306 C112.806245,113.651586 114.441212,113.379659 116.137841,113.098086 C115.792708,108.672196 116.391078,104.4501 118.11405,100.412505 C119.838218,96.372196 122.442132,93.0029607 125.837187,90.2303357 C123.083307,86.2150489 120.359659,82.2440783 117.573451,78.1817621 L117.573451,78.1817621 Z M119.563429,112.556946 C125.620768,111.571137 131.632309,110.59799 137.641156,109.610372 C138.799582,109.420144 138.862143,109.230821 138.184449,108.241696 C135.808329,104.775387 133.429815,101.310887 131.052797,97.8451812 C129.967708,96.2630636 128.883817,94.6797401 127.80232,93.1009386 C122.643285,96.3215489 118.106267,107.022549 119.563429,112.556946 L119.563429,112.556946 Z" id="icon-bicycle" sketch:type="MSShapeGroup" transform="translate(100.500000, 96.000000) scale(-1, 1) translate(-100.500000, -96.000000) "></path>
            </g>
        </g>
    </g>
</svg>