<?xml version="1.0" encoding="UTF-8" standalone="no"?>
<svg width="128px" height="83px" viewBox="0 0 128 83" version="1.1" xmlns="http://www.w3.org/2000/svg" xmlns:xlink="http://www.w3.org/1999/xlink" xmlns:sketch="http://www.bohemiancoding.com/sketch/ns">
    <!-- Generator: Sketch Beta 3.0.4 (8019) - http://www.bohemiancoding.com/sketch -->
    <title>icon-laptop</title>
    <desc>Created with Sketch Beta.</desc>
    <defs>
        <path d="M143.676674,114.610794 C141.469454,114.599424 139.262235,114.608236 137.12682,114.608236 C137.021525,114.347014 136.958235,114.263445 136.958235,114.180161 C136.965898,91.8250204 136.978386,69.4698799 136.989454,47.1147395 C136.991441,43.4300512 135.610403,42.0275786 131.9651,42.0272943 C98.5772504,42.0255888 65.1894011,42.0403697 31.8018357,42.0000067 C29.0687093,41.9965957 26.7215697,43.3044142 26.7383147,46.9817121 C26.8359466,68.7683594 26.786563,90.5558594 26.786563,112.343075 L26.786563,114.607668 C26.209002,114.607668 25.7023945,114.607383 25.1957869,114.607668 C23.3515652,114.608805 21.506492,114.581801 19.6628379,114.620459 C18.3567271,114.647746 17.7303501,115.304356 18.1095253,116.522637 C18.4631572,117.659907 18.9487626,118.983075 19.8132592,119.68488 C21.4327005,120.999805 23.2715297,122.153277 25.1915297,122.965085 C29.165206,124.645267 33.4388734,124.946 37.6983501,124.949979 C66.6879377,124.978688 95.6775253,124.966466 124.667397,124.960781 C125.989685,124.960496 127.313676,124.926671 128.634261,124.858168 C133.051822,124.629065 137.372035,123.944599 141.312222,121.777503 C143.205543,120.736308 144.861312,119.418257 145.524018,117.20824 C146.089942,115.320558 145.603485,114.620743 143.676674,114.610794 L143.676674,114.610794 Z M31.9423235,44.5957464 C48.5882836,44.5948936 65.2342437,44.5951779 81.87992,44.5951779 C98.5258801,44.5951779 115.17184,44.5948936 131.8178,44.5957464 C134.169197,44.5957464 134.520275,44.9334313 134.520559,47.3063217 C134.524816,68.8559073 134.524816,90.4052087 134.520559,111.954794 C134.520275,114.254918 134.176576,114.604825 131.904931,114.605109 C98.5658978,114.608805 65.2265807,114.608805 31.8875475,114.605109 C29.6031306,114.604825 29.2563102,114.25776 29.2557426,111.970996 C29.2514854,90.4214108 29.2514854,68.8718251 29.2554588,47.3225238 C29.2560264,44.9337156 29.6019954,44.5957464 31.9423235,44.5957464 L31.9423235,44.5957464 Z M139.335175,119.873051 C135.489499,121.796548 131.301259,122.362198 127.084922,122.369305 C96.9572415,122.419332 66.8289932,122.415921 36.7013124,122.372147 C32.6748468,122.366462 28.6702348,121.842027 24.9627759,120.118072 C23.5632903,119.467147 22.3224566,118.472853 21.0092504,117.635178 C21.0807714,117.479695 21.1520087,117.324212 21.2232459,117.168729 C21.6214366,117.138599 22.0196273,117.082034 22.4175342,117.082034 C37.7417736,117.077486 53.0657293,117.070096 68.3899688,117.107616 C69.0115209,117.109037 69.628532,117.552178 70.2537736,117.7719 C71.0754144,118.060695 71.900461,118.564096 72.7286295,118.573476 C78.829206,118.641979 84.9314854,118.652496 91.0314943,118.564948 C91.9289133,118.551873 92.8186694,117.927952 93.7101284,117.581455 C94.1242127,117.420572 94.5329045,117.100226 94.9444344,117.099657 C110.694111,117.078339 126.443787,117.085445 142.193747,117.091983 C142.281729,117.091983 142.369712,117.135757 142.457694,117.159065 C142.553623,117.300904 142.649836,117.443027 142.745765,117.584866 C141.613064,118.356027 140.549614,119.2659 139.335175,119.873051 L139.335175,119.873051 Z M39.4614011,109.35877 C67.7440087,109.361044 96.0263324,109.361044 124.30894,109.35877 C127.578758,109.358486 129.041818,107.878983 129.042386,104.585986 C129.044088,87.9601197 129.043521,71.3342532 129.042669,54.7083868 C129.042386,51.2826471 127.671565,49.9137156 124.241676,49.9137156 C110.100372,49.9125786 95.9590685,49.9131471 81.8177648,49.9131471 C67.676461,49.9131471 53.535441,49.9120101 39.3941373,49.9139998 C36.1572415,49.9145683 34.7344832,51.3338114 34.7341994,54.5614313 C34.7322127,71.2347669 34.7324965,87.9081025 34.7339155,104.581154 C34.7341994,107.882678 36.1901639,109.358486 39.4614011,109.35877 L39.4614011,109.35877 Z M39.6790863,52.4827361 C53.7735608,52.4818834 67.8683191,52.4821676 81.9627936,52.4821676 C96.010155,52.4821676 110.057516,52.4818834 124.104878,52.4827361 C126.33906,52.4827361 126.476142,52.615195 126.476426,54.7885443 C126.477561,71.3677943 126.477561,87.9473286 126.476142,104.526579 C126.475858,106.528811 126.198004,106.803962 124.168452,106.803962 C95.9789355,106.805099 67.7897027,106.805383 39.6004699,106.803962 C37.5819865,106.803962 37.3001595,106.523127 37.3001595,104.519188 C37.2987404,87.9396539 37.2987404,71.3604039 37.2998756,54.7811539 C37.3001595,52.615195 37.4386606,52.4827361 39.6790863,52.4827361 L39.6790863,52.4827361 Z" id="path-1"></path>
    </defs>
    <g id="Welcome" stroke="none" stroke-width="1" fill="none" fill-rule="evenodd" sketch:type="MSPage">
        <g id="Challenge---Grid" sketch:type="MSArtboardGroup" transform="translate(-17.000000, -208.000000)">
            <g id="Sleep-on-it" sketch:type="MSLayerGroup" transform="translate(-1.000000, 166.000000)">
                <g id="icon-laptop">
                    <use fill="#FFFFFF" fill-rule="evenodd" sketch:type="MSShapeGroup" xlink:href="#path-1"></use>
                    <use fill="none" xlink:href="#path-1"></use>
                </g>
            </g>
        </g>
    </g>
</svg>